<?xml version="1.0" encoding="UTF-8" standalone="no"?><svg xmlns="http://www.w3.org/2000/svg" xmlns:xlink="http://www.w3.org/1999/xlink" contentStyleType="text/css" height="827px" preserveAspectRatio="none" style="width:1086px;height:827px;background:#FFFFFF;" version="1.1" viewBox="0 0 1086 827" width="1086px" zoomAndPan="magnify"><defs/><g><rect fill="none" height="26.4883" id="_title" style="stroke:none;stroke-width:1.0;" width="327" x="378.5" y="10"/><text fill="#000000" font-family="sans-serif" font-size="14" font-weight="bold" lengthAdjust="spacing" textLength="317" x="383.5" y="28.5352">Screen Golf Room Booking App Architecture</text><line style="stroke:#181818;stroke-width:0.5;stroke-dasharray:5.0,5.0;" x1="23" x2="23" y1="118.9766" y2="746.498"/><line style="stroke:#181818;stroke-width:0.5;stroke-dasharray:5.0,5.0;" x1="133.5" x2="133.5" y1="118.9766" y2="746.498"/><line style="stroke:#181818;stroke-width:0.5;stroke-dasharray:5.0,5.0;" x1="252.5" x2="252.5" y1="118.9766" y2="746.498"/><line style="stroke:#181818;stroke-width:0.5;stroke-dasharray:5.0,5.0;" x1="375" x2="375" y1="118.9766" y2="746.498"/><line style="stroke:#181818;stroke-width:0.5;stroke-dasharray:5.0,5.0;" x1="481" x2="481" y1="118.9766" y2="746.498"/><line style="stroke:#181818;stroke-width:0.5;stroke-dasharray:5.0,5.0;" x1="565" x2="565" y1="118.9766" y2="746.498"/><line style="stroke:#181818;stroke-width:0.5;stroke-dasharray:5.0,5.0;" x1="656" x2="656" y1="118.9766" y2="746.498"/><line style="stroke:#181818;stroke-width:0.5;stroke-dasharray:5.0,5.0;" x1="753" x2="753" y1="118.9766" y2="746.498"/><line style="stroke:#181818;stroke-width:0.5;stroke-dasharray:5.0,5.0;" x1="850" x2="850" y1="118.9766" y2="746.498"/><line style="stroke:#181818;stroke-width:0.5;stroke-dasharray:5.0,5.0;" x1="992" x2="992" y1="118.9766" y2="746.498"/><text fill="#000000" font-family="sans-serif" font-size="14" lengthAdjust="spacing" textLength="31" x="5" y="116.0234">User</text><ellipse cx="23.5" cy="50.9883" fill="#E2E2F0" rx="8" ry="8" style="stroke:#181818;stroke-width:0.5;"/><path d="M23.5,58.9883 L23.5,85.9883 M10.5,66.9883 L36.5,66.9883 M23.5,85.9883 L10.5,100.9883 M23.5,85.9883 L36.5,100.9883 " fill="none" style="stroke:#181818;stroke-width:0.5;"/><text fill="#000000" font-family="sans-serif" font-size="14" lengthAdjust="spacing" textLength="31" x="5" y="759.0332">User</text><ellipse cx="23.5" cy="770.4863" fill="#E2E2F0" rx="8" ry="8" style="stroke:#181818;stroke-width:0.5;"/><path d="M23.5,778.4863 L23.5,805.4863 M10.5,786.4863 L36.5,786.4863 M23.5,805.4863 L10.5,820.4863 M23.5,805.4863 L36.5,820.4863 " fill="none" style="stroke:#181818;stroke-width:0.5;"/><rect fill="#E2E2F0" height="30.4883" rx="2.5" ry="2.5" style="stroke:#181818;stroke-width:0.5;" width="28" x="119.5" y="87.4883"/><text fill="#000000" font-family="sans-serif" font-size="14" lengthAdjust="spacing" textLength="14" x="126.5" y="108.0234">UI</text><rect fill="#E2E2F0" height="30.4883" rx="2.5" ry="2.5" style="stroke:#181818;stroke-width:0.5;" width="28" x="119.5" y="745.498"/><text fill="#000000" font-family="sans-serif" font-size="14" lengthAdjust="spacing" textLength="14" x="126.5" y="766.0332">UI</text><rect fill="#E2E2F0" height="30.4883" rx="2.5" ry="2.5" style="stroke:#181818;stroke-width:0.5;" width="36" x="234.5" y="87.4883"/><text fill="#000000" font-family="sans-serif" font-size="14" lengthAdjust="spacing" textLength="22" x="241.5" y="108.0234">API</text><rect fill="#E2E2F0" height="30.4883" rx="2.5" ry="2.5" style="stroke:#181818;stroke-width:0.5;" width="36" x="234.5" y="745.498"/><text fill="#000000" font-family="sans-serif" font-size="14" lengthAdjust="spacing" textLength="22" x="241.5" y="766.0332">API</text><rect fill="#E2E2F0" height="30.4883" rx="2.5" ry="2.5" style="stroke:#181818;stroke-width:0.5;" width="115" x="318" y="87.4883"/><text fill="#000000" font-family="sans-serif" font-size="14" lengthAdjust="spacing" textLength="101" x="325" y="108.0234">Authentication</text><rect fill="#E2E2F0" height="30.4883" rx="2.5" ry="2.5" style="stroke:#181818;stroke-width:0.5;" width="115" x="318" y="745.498"/><text fill="#000000" font-family="sans-serif" font-size="14" lengthAdjust="spacing" textLength="101" x="325" y="766.0332">Authentication</text><rect fill="#E2E2F0" height="30.4883" rx="2.5" ry="2.5" style="stroke:#181818;stroke-width:0.5;" width="77" x="443" y="87.4883"/><text fill="#000000" font-family="sans-serif" font-size="14" lengthAdjust="spacing" textLength="63" x="450" y="108.0234">Database</text><rect fill="#E2E2F0" height="30.4883" rx="2.5" ry="2.5" style="stroke:#181818;stroke-width:0.5;" width="77" x="443" y="745.498"/><text fill="#000000" font-family="sans-serif" font-size="14" lengthAdjust="spacing" textLength="63" x="450" y="766.0332">Database</text><rect fill="#E2E2F0" height="30.4883" rx="2.5" ry="2.5" style="stroke:#181818;stroke-width:0.5;" width="71" x="530" y="87.4883"/><text fill="#000000" font-family="sans-serif" font-size="14" lengthAdjust="spacing" textLength="57" x="537" y="108.0234">Backend</text><rect fill="#E2E2F0" height="30.4883" rx="2.5" ry="2.5" style="stroke:#181818;stroke-width:0.5;" width="71" x="530" y="745.498"/><text fill="#000000" font-family="sans-serif" font-size="14" lengthAdjust="spacing" textLength="57" x="537" y="766.0332">Backend</text><rect fill="#E2E2F0" height="30.4883" rx="2.5" ry="2.5" style="stroke:#181818;stroke-width:0.5;" width="90" x="611" y="87.4883"/><text fill="#000000" font-family="sans-serif" font-size="14" lengthAdjust="spacing" textLength="76" x="618" y="108.0234">Web Server</text><rect fill="#E2E2F0" height="30.4883" rx="2.5" ry="2.5" style="stroke:#181818;stroke-width:0.5;" width="90" x="611" y="745.498"/><text fill="#000000" font-family="sans-serif" font-size="14" lengthAdjust="spacing" textLength="76" x="618" y="766.0332">Web Server</text><rect fill="#E2E2F0" height="30.4883" rx="2.5" ry="2.5" style="stroke:#181818;stroke-width:0.5;" width="85" x="711" y="87.4883"/><text fill="#000000" font-family="sans-serif" font-size="14" lengthAdjust="spacing" textLength="71" x="718" y="108.0234">Job Queue</text><rect fill="#E2E2F0" height="30.4883" rx="2.5" ry="2.5" style="stroke:#181818;stroke-width:0.5;" width="85" x="711" y="745.498"/><text fill="#000000" font-family="sans-serif" font-size="14" lengthAdjust="spacing" textLength="71" x="718" y="766.0332">Job Queue</text><rect fill="#E2E2F0" height="30.4883" rx="2.5" ry="2.5" style="stroke:#181818;stroke-width:0.5;" width="89" x="806" y="87.4883"/><text fill="#000000" font-family="sans-serif" font-size="14" lengthAdjust="spacing" textLength="75" x="813" y="108.0234">Job Worker</text><rect fill="#E2E2F0" height="30.4883" rx="2.5" ry="2.5" style="stroke:#181818;stroke-width:0.5;" width="89" x="806" y="745.498"/><text fill="#000000" font-family="sans-serif" font-size="14" lengthAdjust="spacing" textLength="75" x="813" y="766.0332">Job Worker</text><rect fill="#E2E2F0" height="30.4883" rx="2.5" ry="2.5" style="stroke:#181818;stroke-width:0.5;" width="175" x="905" y="87.4883"/><text fill="#000000" font-family="sans-serif" font-size="14" lengthAdjust="spacing" textLength="161" x="912" y="108.0234">App notification service</text><rect fill="#E2E2F0" height="30.4883" rx="2.5" ry="2.5" style="stroke:#181818;stroke-width:0.5;" width="175" x="905" y="745.498"/><text fill="#000000" font-family="sans-serif" font-size="14" lengthAdjust="spacing" textLength="161" x="912" y="766.0332">App notification service</text><polygon fill="#181818" points="121.5,146.2871,131.5,150.2871,121.5,154.2871,125.5,150.2871" style="stroke:#181818;stroke-width:1.0;"/><line style="stroke:#181818;stroke-width:1.0;" x1="23.5" x2="127.5" y1="150.2871" y2="150.2871"/><text fill="#000000" font-family="sans-serif" font-size="13" lengthAdjust="spacing" textLength="86" x="30.5" y="145.5449">Interacts with</text><polygon fill="#181818" points="240.5,175.5977,250.5,179.5977,240.5,183.5977,244.5,179.5977" style="stroke:#181818;stroke-width:1.0;"/><line style="stroke:#181818;stroke-width:1.0;" x1="133.5" x2="246.5" y1="179.5977" y2="179.5977"/><text fill="#000000" font-family="sans-serif" font-size="13" lengthAdjust="spacing" textLength="95" x="140.5" y="174.8555">Sends requests</text><polygon fill="#181818" points="363.5,204.9082,373.5,208.9082,363.5,212.9082,367.5,208.9082" style="stroke:#181818;stroke-width:1.0;"/><line style="stroke:#181818;stroke-width:1.0;" x1="252.5" x2="369.5" y1="208.9082" y2="208.9082"/><text fill="#000000" font-family="sans-serif" font-size="13" lengthAdjust="spacing" textLength="99" x="259.5" y="204.166">Verifies identity</text><polygon fill="#181818" points="469.5,234.2188,479.5,238.2188,469.5,242.2188,473.5,238.2188" style="stroke:#181818;stroke-width:1.0;"/><line style="stroke:#181818;stroke-width:1.0;" x1="252.5" x2="475.5" y1="238.2188" y2="238.2188"/><text fill="#000000" font-family="sans-serif" font-size="13" lengthAdjust="spacing" textLength="158" x="259.5" y="233.4766">Retrieves and stores data</text><polygon fill="#181818" points="553.5,263.5293,563.5,267.5293,553.5,271.5293,557.5,267.5293" style="stroke:#181818;stroke-width:1.0;"/><line style="stroke:#181818;stroke-width:1.0;" x1="252.5" x2="559.5" y1="267.5293" y2="267.5293"/><text fill="#000000" font-family="sans-serif" font-size="13" lengthAdjust="spacing" textLength="123" x="259.5" y="262.7871">Runs backend logic</text><polygon fill="#181818" points="644,292.8398,654,296.8398,644,300.8398,648,296.8398" style="stroke:#181818;stroke-width:1.0;"/><line style="stroke:#181818;stroke-width:1.0;" x1="252.5" x2="650" y1="296.8398" y2="296.8398"/><text fill="#000000" font-family="sans-serif" font-size="13" lengthAdjust="spacing" textLength="109" x="259.5" y="292.0977">Handles requests</text><polygon fill="#181818" points="741.5,322.1504,751.5,326.1504,741.5,330.1504,745.5,326.1504" style="stroke:#181818;stroke-width:1.0;"/><line style="stroke:#181818;stroke-width:1.0;" x1="565.5" x2="747.5" y1="326.1504" y2="326.1504"/><text fill="#000000" font-family="sans-serif" font-size="13" lengthAdjust="spacing" textLength="78" x="572.5" y="321.4082">Queues jobs</text><polygon fill="#181818" points="838.5,351.4609,848.5,355.4609,838.5,359.4609,842.5,355.4609" style="stroke:#181818;stroke-width:1.0;"/><line style="stroke:#181818;stroke-width:1.0;" x1="565.5" x2="844.5" y1="355.4609" y2="355.4609"/><text fill="#000000" font-family="sans-serif" font-size="13" lengthAdjust="spacing" textLength="93" x="572.5" y="350.7188">Processes jobs</text><polygon fill="#181818" points="980.5,380.7715,990.5,384.7715,980.5,388.7715,984.5,384.7715" style="stroke:#181818;stroke-width:1.0;"/><line style="stroke:#181818;stroke-width:1.0;" x1="565.5" x2="986.5" y1="384.7715" y2="384.7715"/><text fill="#000000" font-family="sans-serif" font-size="13" lengthAdjust="spacing" textLength="121" x="572.5" y="380.0293">Sends notifications</text><path d="M487,397.7715 L487,422.7715 L560,422.7715 L560,407.7715 L550,397.7715 L487,397.7715 " fill="#FEFFDD" style="stroke:#181818;stroke-width:0.5;"/><path d="M550,397.7715 L550,407.7715 L560,407.7715 L550,397.7715 " fill="#FEFFDD" style="stroke:#181818;stroke-width:0.5;"/><text fill="#000000" font-family="sans-serif" font-size="13" lengthAdjust="spacing" textLength="52" x="493" y="415.3398">Backend</text><path d="M169,433.082 L169,458.082 L247,458.082 L247,443.082 L237,433.082 L169,433.082 " fill="#FEFFDD" style="stroke:#181818;stroke-width:0.5;"/><path d="M237,433.082 L237,443.082 L247,443.082 L237,433.082 " fill="#FEFFDD" style="stroke:#181818;stroke-width:0.5;"/><text fill="#000000" font-family="sans-serif" font-size="13" lengthAdjust="spacing" textLength="57" x="175" y="450.6504">API Layer</text><path d="M256,468.3926 L256,493.3926 L370,493.3926 L370,478.3926 L360,468.3926 L256,468.3926 " fill="#FEFFDD" style="stroke:#181818;stroke-width:0.5;"/><path d="M360,468.3926 L360,478.3926 L370,478.3926 L360,468.3926 " fill="#FEFFDD" style="stroke:#181818;stroke-width:0.5;"/><text fill="#000000" font-family="sans-serif" font-size="13" lengthAdjust="spacing" textLength="93" x="262" y="485.9609">Authentication</text><path d="M397,503.7031 L397,528.7031 L476,528.7031 L476,513.7031 L466,503.7031 L397,503.7031 " fill="#FEFFDD" style="stroke:#181818;stroke-width:0.5;"/><path d="M466,503.7031 L466,513.7031 L476,513.7031 L466,503.7031 " fill="#FEFFDD" style="stroke:#181818;stroke-width:0.5;"/><text fill="#000000" font-family="sans-serif" font-size="13" lengthAdjust="spacing" textLength="58" x="403" y="521.2715">Database</text><path d="M211,539.0137 L211,594.0137 L748,594.0137 L748,549.0137 L738,539.0137 L211,539.0137 " fill="#FEFFDD" style="stroke:#181818;stroke-width:0.5;"/><path d="M738,539.0137 L738,549.0137 L748,549.0137 L738,539.0137 " fill="#FEFFDD" style="stroke:#181818;stroke-width:0.5;"/><text fill="#000000" font-family="sans-serif" font-size="13" lengthAdjust="spacing" textLength="64" x="217" y="556.582">Job Queue</text><text fill="#000000" font-family="sans-serif" font-size="13" lengthAdjust="spacing" textLength="364" x="217" y="571.8926">Manages a list of tasks or jobs that need to be processed.</text><text fill="#000000" font-family="sans-serif" font-size="13" lengthAdjust="spacing" textLength="516" x="217" y="587.2031">Ensures jobs are processed in the correct order and no jobs are lost or duplicated.</text><path d="M234,604.9453 L234,659.9453 L845,659.9453 L845,614.9453 L835,604.9453 L234,604.9453 " fill="#FEFFDD" style="stroke:#181818;stroke-width:0.5;"/><path d="M835,604.9453 L835,614.9453 L845,614.9453 L835,604.9453 " fill="#FEFFDD" style="stroke:#181818;stroke-width:0.5;"/><text fill="#000000" font-family="sans-serif" font-size="13" lengthAdjust="spacing" textLength="68" x="240" y="622.5137">Job Worker</text><text fill="#000000" font-family="sans-serif" font-size="13" lengthAdjust="spacing" textLength="284" x="240" y="637.8242">Processes the tasks or jobs in the Job Queue.</text><text fill="#000000" font-family="sans-serif" font-size="13" lengthAdjust="spacing" textLength="590" x="240" y="653.1348">Checks the Job Queue for new jobs to process and runs necessary logic to complete each job.</text><path d="M562,670.877 L562,695.877 L651,695.877 L651,680.877 L641,670.877 L562,670.877 " fill="#FEFFDD" style="stroke:#181818;stroke-width:0.5;"/><path d="M641,670.877 L641,680.877 L651,680.877 L641,670.877 " fill="#FEFFDD" style="stroke:#181818;stroke-width:0.5;"/><text fill="#000000" font-family="sans-serif" font-size="13" lengthAdjust="spacing" textLength="68" x="568" y="688.4453">Web Server</text><path d="M816,706.1875 L816,731.1875 L987,731.1875 L987,716.1875 L977,706.1875 L816,706.1875 " fill="#FEFFDD" style="stroke:#181818;stroke-width:0.5;"/><path d="M977,706.1875 L977,716.1875 L987,716.1875 L977,706.1875 " fill="#FEFFDD" style="stroke:#181818;stroke-width:0.5;"/><text fill="#000000" font-family="sans-serif" font-size="13" lengthAdjust="spacing" textLength="150" x="822" y="723.7559">App notification service</text><!--MD5=[b331d5d92346164237ac15cb1876ea83]
@startuml Architecture

title Screen Golf Room Booking App Architecture

actor User

User -> UI : Interacts with
UI -> API : Sends requests
API -> Authentication : Verifies identity
API -> Database : Retrieves and stores data
API -> Backend : Runs backend logic
API -> "Web Server" : Handles requests
Backend -> "Job Queue" : Queues jobs
Backend -> "Job Worker" : Processes jobs
Backend -> "App notification service" : Sends notifications

note left of Backend : Backend
note left of API : API Layer
note left of Authentication : Authentication
note left of Database : Database
note left of "Job Queue" : Job Queue\nManages a list of tasks or jobs that need to be processed.\nEnsures jobs are processed in the correct order and no jobs are lost or duplicated.
note left of "Job Worker" : Job Worker\nProcesses the tasks or jobs in the Job Queue.\nChecks the Job Queue for new jobs to process and runs necessary logic to complete each job.
note left of "Web Server" : Web Server
note left of "App notification service" : App notification service

@enduml

PlantUML version 1.2022.7(Tue Aug 23 02:01:30 JST 2022)
(GPL source distribution)
Java Runtime: OpenJDK Runtime Environment
JVM: OpenJDK 64-Bit Server VM
Default Encoding: UTF-8
Language: ko
Country: KR
--></g></svg>